 <svg  version="1.0" xmlns="http://www.w3.org/2000/svg"  width="300.000000pt" height="300.000000pt" viewBox="0 0 300.000000 300.000000"  preserveAspectRatio="xMidYMid meet">  <g transform="translate(0.000000,300.000000) scale(0.100000,-0.100000)" fill="#646075" stroke="none"> <path d="M128 2244 c-12 -12 -9 -51 5 -61 6 -6 34 -13 61 -17 27 -3 51 -7 52 -9 2 -1 37 -144 78 -316 46 -193 81 -320 92 -332 16 -18 37 -19 394 -19 381 0 400 2 400 36 0 7 -7 20 -16 28 -13 14 -61 16 -369 16 l-353 0 -6 23 c-13 49 -28 47 343 47 318 0 351 2 370 18 20 17 151 364 151 401 0 41 -6 41 -505 41 l-481 0 -12 60 c-9 40 -19 63 -32 70 -24 13 -163 25 -172 14z m223 -168 c27 -11 122 -13 472 -12 242 0 444 -2 449 -5 14 -9 5 -78 -15 -119 -9 -17 -21 -56 -27 -87 -16 -77 -43 -136 -73 -160 -23 -18 -43 -19 -358 -21 l-334 -1 -22 -26 c-13 -14 -24 -24 -24 -21 -3 12 -6 22 -12 36 -12 28 -97 387 -97 409 0 25 -1 25 41 7z m214 -556 c-3 -5 -20 -10 -36 -10 -18 0 -28 4 -24 10 3 6 20 10 36 10 18 0 28 -4 24 -10z m535 0 c-20 -13 -60 -13 -60 0 0 6 17 10 38 10 27 0 33 -3 22 -10z"/> <path d="M2400 1928 c0 -2 -1 -63 -3 -136 l-2 -132 25 0 c24 0 25 3 25 61 0 65 15 89 49 76 12 -5 16 -20 16 -72 0 -63 1 -65 25 -65 24 0 25 2 25 66 0 71 -9 98 -41 114 -15 8 -27 7 -50 -4 l-30 -15 2 52 c3 47 1 52 -19 55 -12 2 -22 2 -22 0z"/> <path d="M1840 1785 l0 -125 85 0 c82 0 85 1 85 23 0 21 -4 22 -62 22 l-62 0 0 30 c0 30 1 30 55 30 48 0 54 2 57 23 3 21 0 22 -55 22 -58 0 -59 1 -58 28 0 26 1 27 60 27 54 0 60 2 63 23 3 21 1 22 -82 22 l-86 0 0 -125z"/> <path d="M2085 1836 c-64 -28 -72 -120 -16 -163 22 -17 93 -16 116 0 25 19 11 38 -25 30 -39 -7 -80 4 -80 22 0 12 14 15 60 15 59 0 60 0 60 28 0 27 -31 72 -50 72 -4 0 -14 2 -22 5 -7 2 -27 -2 -43 -9z m63 -38 c21 -21 13 -28 -28 -28 -22 0 -40 4 -40 8 0 14 23 32 40 32 9 0 21 -5 28 -12z"/> <path d="M2632 1840 c-18 -4 -35 -10 -38 -12 -9 -9 8 -39 20 -35 44 17 55 17 72 0 17 -17 17 -18 -12 -21 -46 -4 -83 -22 -89 -43 -16 -50 31 -83 87 -61 16 6 28 6 28 1 0 -5 9 -9 20 -9 18 0 20 7 20 73 0 58 -4 77 -17 89 -25 22 -52 27 -91 18z m61 -120 c-6 -23 -41 -36 -55 -22 -18 18 0 42 31 42 24 0 28 -3 24 -20z"/> <path d="M1280 1831 c0 -16 44 -20 259 -20 139 0 217 -4 221 -11 4 -6 6 -32 5 -58 l-2 -47 -266 -5 c-194 -4 -269 -8 -279 -17 -10 -10 46 -13 280 -13 l292 0 0 90 0 90 -255 0 c-143 0 -255 -4 -255 -9z"/> <path d="M2242 1828 c-16 -16 -15 -63 1 -77 8 -6 28 -14 45 -17 31 -6 42 -27 21 -39 -5 -4 -24 -1 -40 5 -24 10 -33 10 -42 1 -9 -10 -8 -16 7 -27 29 -20 99 -18 119 4 36 40 12 80 -56 96 -16 4 -27 12 -24 19 4 12 36 15 67 6 10 -3 15 3 15 16 0 17 -8 20 -50 23 -30 2 -55 -2 -63 -10z"/> <path d="M484 1470 c-59 -24 -72 -104 -25 -151 41 -40 91 -40 132 0 76 76 -7 192 -107 151z m75 -36 c25 -32 27 -67 5 -88 -32 -33 -94 -7 -94 39 0 26 36 75 55 75 7 0 23 -12 34 -26z"/> <path d="M1019 1465 c-32 -17 -54 -66 -45 -101 26 -102 181 -93 188 11 6 82 -70 130 -143 90z m88 -34 c20 -26 16 -79 -6 -91 -27 -14 -42 -12 -70 9 -19 14 -22 24 -17 45 15 59 62 77 93 37z"/> </g> </svg> 