 <svg  version="1.0" xmlns="http://www.w3.org/2000/svg"  width="300.000000pt" height="300.000000pt" viewBox="0 0 300.000000 300.000000"  preserveAspectRatio="xMidYMid meet">  <g transform="translate(0.000000,300.000000) scale(0.100000,-0.100000)" fill="#0000ff" stroke="none"> <path d="M1335 2472 c-2 -2 -27 -5 -57 -7 -43 -2 -60 -9 -86 -33 -18 -17 -32 -35 -32 -40 0 -6 -15 -25 -32 -44 -47 -48 -58 -71 -51 -112 3 -21 1 -42 -6 -50 -10 -12 -5 -25 24 -68 20 -29 51 -60 69 -68 33 -17 113 -16 131 1 15 15 53 10 63 -7 6 -11 17 -15 31 -11 23 6 50 -26 31 -38 -14 -8 -13 -28 3 -48 10 -15 12 -9 12 35 -1 31 -5 53 -13 56 -7 2 -9 9 -5 15 4 7 -1 6 -10 -2 -15 -12 -20 -11 -36 3 -15 14 -31 16 -78 12 -32 -3 -66 -8 -75 -11 -9 -4 -19 -1 -23 4 -3 6 -11 9 -16 5 -9 -5 -51 31 -56 49 -2 4 -10 18 -19 31 -11 19 -13 30 -5 44 6 11 8 21 6 23 -2 3 -6 18 -9 35 -5 25 1 38 37 77 23 26 55 63 70 82 16 19 33 32 38 29 5 -3 24 0 43 6 61 20 102 16 129 -13 13 -15 31 -27 40 -27 9 0 18 -4 21 -9 10 -15 65 -31 72 -20 3 5 -8 14 -25 20 -17 6 -31 15 -31 19 0 4 -15 11 -34 14 -29 6 -34 10 -31 32 2 23 0 24 -42 22 -25 -2 -46 -4 -48 -6z"/> <path d="M1544 2409 c-7 -12 5 -30 19 -28 33 5 117 -15 117 -27 0 -8 5 -14 10 -14 6 0 10 -12 10 -26 0 -14 4 -23 10 -19 5 3 16 -17 24 -45 8 -28 21 -57 28 -65 28 -31 39 -45 34 -45 -3 0 7 -12 21 -27 14 -16 30 -26 37 -25 6 2 21 6 34 8 21 4 21 3 -8 -43 -17 -27 -47 -70 -66 -97 -20 -27 -54 -84 -75 -127 -21 -43 -47 -83 -57 -88 -9 -6 -12 -11 -5 -11 17 0 55 53 96 135 35 71 145 220 154 211 3 -3 35 19 72 47 82 65 121 90 128 83 3 -3 0 -13 -7 -21 -11 -13 -11 -16 0 -13 7 2 14 -1 16 -7 2 -5 -36 -32 -84 -58 -48 -26 -112 -71 -142 -98 l-55 -50 65 49 c36 27 102 70 148 96 84 49 86 52 76 104 l-6 30 -47 -31 c-25 -16 -72 -53 -105 -80 -44 -38 -57 -45 -52 -29 8 25 -1 27 -49 14 -33 -10 -58 -5 -50 8 3 5 -2 18 -12 28 -33 34 -64 82 -59 91 3 5 -1 14 -9 21 -8 7 -13 16 -10 20 3 4 -2 13 -10 20 -8 7 -15 17 -15 23 0 6 -7 19 -17 29 -9 11 -11 18 -5 18 7 0 12 -4 12 -10 0 -5 5 -10 10 -10 6 0 10 9 10 20 0 17 -7 20 -52 20 -29 1 -70 7 -91 14 -20 8 -40 10 -43 5z"/> <path d="M531 2226 c-1 -68 0 -70 37 -105 38 -36 446 -257 469 -255 7 1 10 -3 6 -9 -4 -6 0 -8 10 -4 9 3 19 1 23 -5 5 -7 2 -8 -7 -3 -26 15 5 -11 59 -48 67 -48 76 -47 27 3 -21 21 -43 36 -48 33 -6 -3 -7 -2 -4 4 9 14 -56 58 -240 161 -111 63 -168 89 -182 85 -12 -3 -21 -1 -21 6 0 5 8 8 18 5 14 -4 14 -3 -2 8 -71 48 -117 105 -137 168 -5 17 -8 4 -8 -44z m69 -88 c17 -17 28 -33 26 -35 -5 -5 -66 51 -66 61 0 12 10 6 40 -26z m135 -95 l30 -25 -40 23 c-51 29 -51 29 -34 29 8 -1 28 -12 44 -27z m126 -70 c13 -17 13 -17 -6 -3 -11 8 -22 16 -24 17 -2 2 0 3 6 3 6 0 17 -8 24 -17z m49 -18 c7 -8 19 -15 26 -15 8 0 14 -5 14 -10 0 -12 -35 4 -45 20 -4 6 -11 8 -16 5 -5 -4 -9 -1 -9 4 0 16 16 13 30 -4z m90 -55 c0 -5 -7 -7 -15 -4 -8 4 -12 10 -9 15 6 11 24 2 24 -11z m30 -21 c0 -6 -4 -7 -10 -4 -5 3 -10 11 -10 16 0 6 5 7 10 4 6 -3 10 -11 10 -16z"/> <path d="M2447 2241 c-23 -64 -78 -114 -207 -185 -293 -162 -304 -170 -379 -243 -76 -74 -76 -74 -21 -35 62 44 220 138 292 173 34 16 44 26 35 32 -8 6 -6 7 7 3 24 -8 208 88 258 135 37 35 38 38 38 102 0 37 -1 67 -3 67 -1 0 -10 -22 -20 -49z m-7 -86 c-7 -9 -27 -26 -44 -38 -28 -19 -30 -19 -16 -2 24 32 34 41 50 48 23 9 23 8 10 -8z m-110 -89 c0 -2 -9 -6 -20 -9 -11 -3 -20 -1 -20 4 0 5 9 9 20 9 11 0 20 -2 20 -4z m-80 -36 c0 -5 -4 -10 -10 -10 -5 0 -10 5 -10 10 0 6 5 10 10 10 6 0 10 -4 10 -10z m-100 -49 c0 -5 -7 -12 -16 -15 -14 -5 -15 -4 -4 9 14 17 20 19 20 6z m-40 -26 c0 -2 -18 -14 -40 -25 -48 -25 -53 -18 -7 10 32 20 47 25 47 15z m-111 -61 c-7 -9 -22 -20 -34 -25 -11 -5 -38 -20 -60 -35 -22 -14 -30 -17 -18 -7 35 28 72 54 78 53 3 0 13 6 21 15 20 20 30 19 13 -1z"/> <path d="M850 2211 c0 -16 -2 -35 -5 -43 -3 -8 28 -31 88 -65 51 -28 115 -71 142 -94 28 -24 41 -33 31 -21 -11 12 -16 25 -12 29 4 5 23 -10 42 -31 19 -21 34 -33 34 -27 0 6 -42 53 -92 105 -79 79 -124 115 -215 170 -9 5 -13 -1 -13 -23z m83 -35 c53 -36 157 -134 157 -147 0 -12 -6 -11 -22 4 -15 13 -22 18 -120 78 -50 30 -65 45 -61 57 4 13 2 12 -10 -3 -16 -19 -16 -19 -17 13 0 40 12 40 73 -2z"/> <path d="M740 2132 c0 -47 0 -47 52 -72 179 -85 343 -200 405 -284 37 -49 43 -55 37 -31 -32 139 -218 313 -436 409 l-58 26 0 -48z m92 -9 c87 -44 167 -94 226 -141 34 -27 43 -40 39 -58 -3 -20 -2 -22 9 -13 8 6 14 7 14 3 0 -5 10 -20 23 -34 13 -14 31 -39 41 -55 17 -28 16 -28 -15 6 -36 37 -164 129 -236 169 -24 13 -43 27 -43 32 0 4 -3 7 -7 6 -13 -3 -83 35 -83 45 0 5 -7 7 -15 3 -8 -3 -15 -1 -15 5 0 6 -4 7 -10 4 -6 -4 -10 8 -10 29 0 20 2 36 5 36 2 0 37 -17 77 -37z"/> <path d="M2205 2159 c-252 -130 -349 -214 -425 -368 -40 -80 -38 -97 4 -36 61 90 210 200 393 290 l82 40 0 48 c1 26 -2 47 -6 47 -5 -1 -26 -10 -48 -21z m41 -26 c-1 -26 -28 -57 -51 -58 -5 0 -33 -15 -62 -33 -29 -18 -55 -33 -59 -32 -4 1 -10 -2 -13 -7 -12 -18 -149 -101 -156 -95 -4 4 -5 3 -3 -3 1 -5 -21 -32 -50 -59 -61 -58 -67 -50 -14 22 44 58 100 115 154 155 35 26 236 136 249 137 3 0 5 -12 5 -27z"/> <path d="M2499 2148 c7 -21 -1 -108 -14 -140 -5 -13 -2 -18 10 -18 13 0 16 6 11 25 -4 14 -2 25 4 25 5 0 9 24 8 53 -1 29 1 57 4 63 4 5 -2 10 -12 11 -15 1 -17 -3 -11 -19z"/> <path d="M510 2107 c0 -26 7 -64 15 -84 8 -20 13 -38 10 -41 -8 -9 -37 70 -39 110 -5 59 -16 58 -16 0 0 -30 5 -52 11 -52 5 0 8 -4 4 -9 -7 -12 15 -61 28 -61 5 0 6 -8 3 -17 -4 -10 -4 -14 0 -11 4 4 16 2 28 -4 20 -11 20 -10 4 9 -27 30 -21 40 7 13 13 -12 22 -27 18 -33 -3 -6 -1 -7 5 -3 6 4 23 -1 37 -10 21 -14 28 -15 38 -4 7 7 7 10 1 7 -14 -8 -86 41 -79 54 4 5 -1 9 -10 9 -17 0 -48 62 -43 86 3 12 7 12 26 -1 16 -12 21 -22 16 -41 -5 -18 -1 -26 12 -31 11 -4 26 -15 34 -25 11 -14 33 -20 79 -24 35 -3 72 -9 82 -15 27 -14 33 -11 18 9 -13 15 -12 16 3 3 10 -7 15 -17 12 -22 -3 -5 -1 -9 5 -9 5 0 11 3 14 8 2 4 2 1 0 -6 -2 -9 4 -11 20 -7 15 4 18 3 9 -3 -11 -7 -10 -10 3 -16 24 -9 25 -8 18 12 -7 16 -6 16 11 0 9 -10 25 -18 34 -19 14 0 13 -2 -3 -8 -17 -7 -11 -11 33 -27 28 -10 52 -22 52 -26 0 -12 -18 -19 -25 -8 -4 6 -11 7 -17 4 -7 -4 -8 -2 -4 4 8 14 -3 15 -22 4 -17 -11 28 -32 68 -32 21 0 39 -11 66 -40 33 -36 43 -40 88 -42 l51 -1 -44 -4 c-24 -3 -51 -1 -60 3 -9 4 -20 6 -26 5 -5 -2 -7 1 -2 5 11 11 -34 54 -57 54 -23 0 -219 81 -212 87 2 3 26 -5 51 -16 57 -25 62 -26 62 -6 0 10 -6 13 -17 10 -10 -3 -46 7 -81 23 -67 30 -130 45 -155 35 -7 -3 -12 -9 -9 -14 5 -7 -61 13 -116 35 -14 6 -15 1 -8 -36 4 -24 10 -54 13 -68 6 -25 6 -25 -5 -2 -7 12 -15 22 -20 22 -4 0 -5 10 -2 23 4 17 3 19 -6 11 -13 -12 -4 -67 9 -59 7 5 25 -31 22 -45 -2 -15 47 -52 81 -61 49 -13 60 -5 13 11 -19 6 -40 17 -46 25 -7 8 -17 12 -23 8 -6 -3 -7 -1 -3 5 4 7 24 2 58 -16 35 -18 68 -27 100 -27 26 0 48 -3 48 -6 0 -3 -34 -12 -75 -18 -41 -7 -75 -16 -75 -21 0 -4 15 -21 34 -38 19 -17 33 -32 31 -34 -7 -6 143 10 155 17 5 3 10 3 10 0 0 -9 -103 -55 -124 -55 -16 0 -17 -2 -5 -17 40 -48 157 -68 200 -34 17 13 44 19 93 20 39 1 75 5 80 9 6 3 5 -1 -2 -10 -10 -13 -29 -17 -75 -16 -57 1 -65 -2 -94 -31 l-32 -31 29 -15 c43 -22 92 -19 135 10 20 15 40 24 42 21 3 -3 -4 -21 -15 -41 l-21 -35 47 0 c75 0 88 15 84 94 l-4 67 -161 -6 c-89 -3 -174 -8 -189 -10 -20 -3 -31 1 -38 14 -10 20 2 24 27 8 6 -4 19 -4 29 0 15 6 14 7 -6 15 -19 7 -20 11 -9 24 18 22 183 10 221 -17 19 -13 44 -19 80 -19 l53 0 24 57 25 56 -42 37 c-74 66 -193 139 -362 223 -91 45 -166 85 -168 89 -2 4 -10 4 -19 1 -11 -4 -14 -2 -9 5 5 8 1 10 -10 5 -13 -5 -15 -3 -9 8 4 8 5 11 0 7 -4 -4 -14 0 -22 10 -8 9 -12 11 -8 5 4 -9 1 -11 -9 -7 -9 3 -14 9 -11 13 2 4 -14 25 -35 46 l-40 39 0 -47z m64 -36 c-6 -6 -44 30 -44 42 0 5 11 -1 24 -14 14 -13 23 -26 20 -28z m36 -56 c0 -8 -7 -15 -15 -15 -8 0 -15 7 -15 15 0 8 7 15 15 15 8 0 15 -7 15 -15z m45 -16 c-4 -5 -11 -7 -16 -4 -15 10 -10 -7 9 -29 17 -21 17 -21 -4 -3 -12 10 -21 29 -21 42 0 21 2 23 19 14 10 -5 16 -14 13 -20z m29 -6 c4 -5 11 -8 14 -9 6 -1 34 -11 72 -28 8 -3 -8 -4 -37 -2 -52 3 -88 20 -77 37 6 11 18 12 28 2z m-45 -113 c8 0 23 -8 33 -17 14 -13 21 -14 30 -5 19 19 43 14 116 -19 37 -18 72 -33 77 -35 25 -6 85 -35 85 -40 0 -15 -95 9 -108 27 -9 13 -20 18 -33 14 -10 -4 -27 -1 -36 5 -15 9 -13 10 12 6 30 -5 29 -5 -5 11 -21 10 -56 16 -89 15 -40 -1 -60 3 -82 19 -34 24 -59 19 -59 -11 0 -12 4 -19 8 -16 5 3 25 -4 45 -14 41 -22 50 -12 15 14 l-23 17 24 -12 c13 -6 45 -9 70 -6 l46 4 -40 -18 c-22 -9 -34 -18 -27 -18 7 -1 22 4 32 9 26 14 98 -15 128 -52 13 -15 28 -26 33 -23 5 4 -1 16 -14 28 -13 12 -15 16 -5 8 9 -7 48 -16 85 -19 61 -4 73 -9 112 -43 41 -36 49 -39 110 -41 l66 -2 -69 -3 c-64 -4 -71 -2 -98 23 -19 19 -31 25 -39 17 -7 -7 1 -18 25 -36 28 -22 46 -27 98 -28 50 -1 57 -3 33 -9 -65 -17 -93 -11 -134 25 -33 30 -45 35 -88 35 -33 0 -55 -5 -63 -15 -8 -9 -9 -15 -2 -15 6 0 14 5 17 10 3 6 11 10 16 10 6 0 8 -4 5 -9 -4 -5 11 -7 33 -4 36 5 43 2 75 -33 33 -36 37 -38 90 -35 35 1 56 -2 56 -8 0 -7 -22 -11 -53 -11 -48 0 -57 4 -87 35 -26 27 -42 35 -69 35 -20 0 -45 -7 -55 -15 -22 -17 -66 -20 -66 -5 0 6 13 10 29 10 17 0 32 4 36 9 8 13 -76 3 -93 -11 -9 -8 -16 -8 -24 0 -15 15 -1 31 22 25 11 -3 27 -2 36 1 13 5 14 9 4 21 -7 8 -17 15 -22 15 -6 0 -5 -6 2 -15 10 -12 8 -13 -11 -10 -29 6 -51 -13 -44 -36 13 -41 -116 -32 -142 10 -11 17 -7 19 45 25 70 8 87 17 79 46 -5 19 -3 20 11 8 9 -7 21 -19 25 -26 5 -7 12 -10 18 -7 10 7 -42 55 -60 55 -13 0 -15 17 -2 25 6 3 13 -1 18 -9 14 -26 100 -85 109 -76 5 5 34 11 64 13 53 4 53 4 -10 4 -64 0 -124 18 -114 34 3 5 -2 9 -10 9 -8 0 -20 9 -26 21 -17 30 -45 20 -45 -16 0 -29 -1 -30 -45 -27 -46 4 -108 30 -128 55 -19 23 -44 99 -29 91 9 -5 9 -4 0 7 -22 23 -14 27 25 13 20 -7 43 -13 51 -14z m151 -7 c16 -9 18 -12 5 -8 -46 15 -76 17 -88 6 -15 -12 -27 -5 -27 15 0 16 75 7 110 -13z m-165 -12 c7 -12 -12 -24 -25 -16 -11 7 -4 25 10 25 5 0 11 -4 15 -9z m162 -37 c-3 -3 -12 -4 -19 -1 -8 3 -5 6 6 6 11 1 17 -2 13 -5z m262 -18 c10 -12 8 -13 -8 -9 -12 3 -21 9 -21 14 0 14 16 11 29 -5z m-475 -36 c-6 -6 -10 -2 -11 12 -2 16 1 18 10 9 7 -7 8 -14 1 -21z m572 -48 c-15 -3 -76 48 -76 64 0 3 21 -10 46 -28 33 -24 42 -34 30 -36z m-120 -97 c18 -13 16 -14 -23 -15 -43 0 -67 15 -36 23 32 8 39 7 59 -8z m-226 -89 c8 -11 24 -13 61 -9 30 4 49 2 49 -4 0 -17 -36 -22 -81 -12 -43 10 -85 39 -56 39 8 0 20 -6 27 -14z m370 -3 c-14 -3 -36 -15 -50 -28 -18 -17 -39 -24 -79 -27 -33 -2 -56 1 -58 8 -2 6 18 11 54 12 42 1 62 7 77 22 13 12 32 19 51 19 27 -2 27 -2 5 -6z m-6 -36 c21 -21 17 -66 -7 -79 -16 -8 -22 -8 -25 1 -2 6 -7 9 -12 6 -4 -3 -6 4 -3 15 3 11 10 20 15 20 5 0 6 5 3 10 -4 6 -12 7 -18 3 -7 -3 -3 3 7 15 22 26 23 26 40 9z m-197 -17 c-4 -15 0 -20 15 -20 10 0 17 -4 14 -9 -4 -5 -14 -8 -24 -6 -9 2 -23 4 -30 4 -9 1 -8 8 5 26 22 30 27 31 20 5z m73 -20 c0 -5 -8 -10 -17 -10 -15 0 -16 2 -3 10 19 12 20 12 20 0z"/> <path d="M970 1731 c25 -4 52 -11 60 -16 13 -8 13 -7 1 8 -9 12 -27 17 -60 16 l-46 -2 45 -6z"/> <path d="M2428 2096 c-31 -30 -59 -52 -62 -49 -3 4 -6 1 -6 -6 0 -7 -4 -10 -9 -7 -5 4 -11 2 -13 -2 -1 -5 -83 -47 -180 -94 -178 -86 -325 -178 -385 -240 l-33 -33 25 -49 c20 -40 25 -64 25 -124 0 -89 10 -101 87 -102 l52 0 -26 46 -26 46 44 -32 c38 -28 50 -31 91 -27 26 2 54 10 63 17 13 11 11 17 -16 47 -16 19 -28 38 -25 41 4 3 12 -3 20 -13 9 -13 31 -21 69 -25 31 -3 53 -2 51 2 -3 4 0 8 7 8 7 0 33 12 58 27 l45 26 -40 12 c-21 6 -58 21 -81 33 -23 12 -57 22 -75 22 -85 0 -151 -9 -167 -24 -20 -18 -131 -23 -131 -6 0 6 26 10 57 10 51 0 61 3 93 34 27 26 46 35 87 39 39 5 53 2 57 -9 7 -17 -5 -18 -24 -1 -12 10 -12 9 -1 -5 7 -10 25 -18 39 -18 14 0 34 -7 43 -16 19 -17 152 -37 143 -22 -3 4 1 8 10 8 8 0 16 -3 19 -7 2 -5 3 -3 1 3 -1 7 11 24 27 40 16 15 29 24 29 20 0 -5 7 -3 15 4 18 15 20 44 3 34 -7 -4 8 14 35 40 26 26 45 51 42 57 -4 5 -1 9 6 9 7 0 10 3 6 6 -3 4 0 19 9 35 9 18 10 29 4 29 -11 0 -52 -84 -53 -108 0 -6 -3 -10 -5 -7 -3 3 -15 -4 -27 -15 -11 -11 -39 -26 -60 -35 -38 -14 -39 -14 -8 -11 29 4 60 -13 48 -26 -3 -3 -45 3 -93 13 -48 9 -89 15 -91 13 -2 -2 1 -4 8 -4 7 0 9 -5 5 -12 -4 -7 -4 -10 0 -6 5 4 20 2 35 -4 14 -6 41 -10 60 -9 30 0 32 -1 20 -17 -7 -9 -14 -19 -15 -20 -2 -2 -21 -8 -44 -13 -54 -12 -80 -4 -80 26 0 25 -21 38 -45 29 -27 -11 -16 5 21 30 30 20 40 23 60 14 18 -8 39 -8 79 1 89 20 141 77 155 169 6 37 5 42 -9 37 -36 -15 -105 -34 -109 -30 -6 6 60 39 83 41 57 6 71 15 61 41 -6 15 -10 14 -32 -10 -37 -40 -38 -33 -1 19 26 37 32 56 34 105 1 32 1 59 0 59 -1 0 -27 -25 -59 -54z m32 -1 c-8 -10 -9 -15 -1 -15 6 0 11 -12 11 -27 0 -14 -3 -23 -7 -20 -3 4 -11 3 -17 -2 -7 -6 -16 -4 -23 4 -10 11 -9 15 7 20 11 4 20 11 20 16 0 13 -13 11 -30 -3 -8 -7 -2 2 14 19 29 32 52 39 26 8z m-17 -78 c23 -2 22 -9 -10 -39 -37 -33 -78 -59 -85 -53 -3 3 -13 -10 -22 -30 -9 -19 -18 -35 -20 -35 -8 0 0 36 9 42 18 14 -90 -5 -110 -18 -14 -10 -15 -14 -5 -14 13 0 13 -2 0 -10 -8 -5 -22 -10 -30 -10 -13 0 -13 1 0 10 32 21 -8 8 -65 -21 -33 -16 -51 -27 -40 -23 55 18 54 12 -4 -16 -35 -16 -74 -30 -87 -30 -24 0 -45 -19 -22 -21 40 -2 122 4 148 11 35 10 40 3 8 -10 -22 -9 -22 -9 3 -9 19 -1 28 5 32 19 4 17 39 38 74 44 7 1 15 5 19 8 3 4 17 3 31 -3 30 -11 43 -12 43 -1 0 21 -84 17 -129 -5 -37 -18 -42 -19 -37 -5 4 12 0 10 -13 -5 -13 -16 -34 -24 -72 -28 l-54 -5 40 19 c22 11 63 29 90 41 28 12 62 28 77 36 30 16 78 19 78 4 0 -15 18 -12 48 9 35 24 87 37 76 19 -4 -7 3 -4 16 7 23 20 23 20 16 0 -4 -11 -9 -33 -12 -49 -8 -63 -65 -106 -161 -120 -39 -6 -57 4 -34 18 15 10 0 46 -20 46 -10 0 -24 -9 -33 -21 -20 -30 -82 -70 -98 -64 -7 3 -41 6 -75 8 -58 3 -65 1 -90 -25 -25 -26 -31 -28 -102 -26 l-76 2 69 3 c60 4 75 8 109 36 22 17 35 33 29 35 -19 6 -27 3 -27 -10 0 -7 -4 -13 -10 -14 -5 0 -17 -4 -26 -8 -9 -4 -36 -6 -60 -3 l-44 4 51 1 c50 2 86 23 70 40 -4 4 -12 -1 -17 -11 -6 -9 -14 -15 -20 -12 -17 11 -10 23 26 44 22 12 35 16 35 9 0 -9 3 -9 12 0 7 7 26 12 42 12 33 0 43 5 65 33 19 25 -5 22 -26 -3 -20 -23 -33 -26 -33 -6 0 8 12 17 27 21 22 5 24 8 12 16 -10 8 -8 9 10 4 15 -5 21 -4 17 4 -9 13 48 43 68 35 9 -3 14 -10 11 -15 -3 -4 8 -3 25 2 16 6 33 15 36 20 3 5 -6 4 -21 -3 -20 -9 -28 -9 -38 1 -9 10 -8 11 6 5 12 -4 17 -2 15 6 -2 7 3 15 11 18 8 3 11 0 7 -7 -5 -7 -1 -9 8 -5 9 3 14 10 11 14 -6 9 78 50 101 50 8 0 14 5 14 12 0 6 3 9 6 5 4 -3 13 0 21 8 8 8 19 15 24 15 12 0 -6 -36 -24 -47 -13 -8 -15 -9 -72 -23 l-40 -9 45 3 c25 2 54 7 64 12 14 5 17 4 12 -4 -12 -20 0 -13 20 10 15 19 16 20 2 9 -20 -15 -25 1 -5 17 8 7 18 7 27 2 15 -9 30 -4 30 9 0 5 -7 8 -16 7 -9 0 -19 5 -22 13 -4 11 1 12 19 7 13 -5 32 -8 42 -9z m-143 -134 c0 -5 -20 -8 -44 -8 -25 0 -40 3 -33 7 16 10 77 10 77 1z m-150 -43 c-8 -5 -19 -10 -25 -10 -5 0 -3 5 5 10 8 5 20 10 25 10 6 0 3 -5 -5 -10z m-170 -29 c0 -5 -9 -11 -20 -14 -22 -6 -28 8 -7 16 19 8 27 8 27 -2z m250 -52 c0 -5 -4 -9 -10 -9 -5 0 -32 -16 -60 -36 -51 -37 -57 -60 -14 -51 26 5 39 -6 28 -24 -4 -8 -9 -8 -17 0 -6 6 -18 11 -27 11 -9 0 -25 9 -35 20 -13 15 -31 20 -67 20 -42 0 -56 -6 -92 -35 -35 -29 -51 -35 -87 -34 -78 1 -92 18 -15 18 62 1 72 4 104 32 33 29 39 31 106 28 64 -3 75 -1 113 24 23 16 44 35 47 43 6 16 26 10 26 -7z m-85 -169 c15 -12 14 -15 -7 -27 -22 -12 -22 -13 12 -10 24 1 34 -2 33 -10 -2 -7 2 -13 7 -13 6 0 10 5 10 10 0 6 5 10 10 10 19 0 10 -17 -16 -28 -14 -7 -23 -8 -20 -3 10 16 -22 21 -132 22 -59 1 -138 5 -177 9 l-70 7 54 1 c36 1 61 8 74 19 32 30 192 38 222 13z m-257 -72 c18 -18 36 -23 73 -23 27 0 49 -4 49 -10 0 -6 -22 -9 -53 -7 -37 3 -59 10 -77 27 -14 13 -38 25 -55 28 -29 4 -29 4 4 6 24 1 42 -6 59 -21z m85 11 c50 -1 51 -1 20 -11 -36 -12 -103 -3 -103 14 0 5 7 7 16 4 9 -3 39 -6 67 -7z m182 -9 c10 -17 -62 -16 -79 1 -6 5 6 9 31 9 23 0 45 -4 48 -10z m-296 -14 c6 -6 13 -31 17 -54 6 -35 4 -42 -10 -42 -39 0 -56 19 -56 63 0 35 3 43 19 44 11 1 24 -4 30 -11z m191 -41 c0 -21 -10 -23 -65 -15 l-50 7 48 2 c35 1 47 5 47 17 0 8 5 12 10 9 6 -3 10 -12 10 -20z"/> <path d="M2214 1932 c14 -3 15 -6 6 -12 -15 -9 79 -1 97 9 6 3 -19 6 -55 6 -37 0 -58 -1 -48 -3z"/> <path d="M2080 1875 c-15 -9 -19 -14 -10 -15 13 0 13 -1 0 -10 -24 -15 2 -11 30 5 15 9 19 14 10 15 -13 0 -13 1 0 10 24 15 -2 11 -30 -5z"/> <path d="M2360 1865 c-6 -8 -9 -19 -5 -25 4 -7 -2 -14 -14 -17 -11 -3 -19 -9 -16 -13 2 -4 24 2 49 14 37 17 43 23 35 38 -12 22 -32 23 -49 3z m40 -9 c0 -8 -9 -14 -19 -13 -15 1 -17 4 -9 14 14 17 28 16 28 -1z"/> <path d="M2210 1839 c-8 -4 -24 -10 -34 -14 -10 -3 -17 -8 -14 -11 3 -2 18 1 34 7 16 7 56 11 89 10 32 -1 57 0 55 3 -10 8 -116 13 -130 5z"/> <path d="M1910 1759 c0 -5 5 -7 10 -4 6 3 10 8 10 11 0 2 -4 4 -10 4 -5 0 -10 -5 -10 -11z"/> <path d="M1976 1731 c-5 -8 84 -3 93 5 2 2 -16 4 -42 4 -25 0 -48 -4 -51 -9z"/> <path d="M2066 1584 c-5 -13 -9 -15 -18 -6 -20 20 -92 15 -113 -8 -19 -21 -8 -29 12 -9 11 11 74 8 105 -5 12 -5 18 -1 23 14 8 26 0 38 -9 14z"/> <path d="M2552 2085 c0 -16 2 -22 5 -12 2 9 2 23 0 30 -3 6 -5 -1 -5 -18z"/> <path d="M1243 1966 c10 -64 42 -102 111 -135 62 -29 116 -79 116 -107 0 -24 -47 -64 -74 -64 -13 0 -38 12 -55 26 -36 30 -41 69 -12 106 l19 24 -28 16 -29 16 -15 -39 c-9 -22 -16 -62 -16 -89 0 -55 14 -76 70 -105 43 -22 59 -7 19 17 -41 25 -58 47 -59 73 0 16 4 13 20 -12 19 -33 36 -40 99 -45 30 -3 34 -7 37 -33 4 -40 -28 -64 -53 -40 -9 9 -24 14 -35 12 -10 -3 -16 -2 -13 3 6 10 -24 22 -36 14 -12 -7 -12 -191 0 -199 16 -9 18 7 12 103 -5 75 -4 89 7 75 7 -10 12 -47 12 -89 0 -69 14 -105 35 -86 5 4 5 2 2 -4 -4 -7 0 -17 8 -24 10 -9 15 -31 15 -72 0 -45 5 -66 20 -85 11 -14 20 -39 20 -54 0 -16 5 -29 10 -29 17 0 10 64 -10 90 -15 19 -20 41 -20 90 0 57 -3 67 -29 95 -25 25 -30 39 -32 90 -2 50 0 61 14 63 18 4 23 -13 7 -23 -5 -3 -10 -28 -10 -54 0 -41 5 -52 35 -81 33 -32 35 -38 35 -101 0 -47 4 -70 15 -79 9 -7 15 -29 15 -51 0 -22 5 -39 11 -39 7 0 10 54 7 175 -2 132 0 175 9 175 9 0 12 -43 10 -175 -2 -134 1 -175 11 -175 7 0 12 14 12 38 0 20 7 46 15 56 10 13 15 43 15 87 0 63 2 69 31 93 30 25 31 29 28 89 -2 35 0 64 6 67 6 3 11 -20 13 -59 2 -49 -1 -68 -14 -83 -10 -10 -19 -29 -21 -41 -3 -20 -1 -19 27 8 28 26 30 34 30 96 0 37 4 79 10 93 7 20 6 24 -5 19 -8 -3 -12 -9 -9 -14 3 -5 -2 -6 -11 -3 -31 12 -43 -13 -38 -79 4 -49 2 -59 -7 -47 -10 13 -11 12 -6 -3 6 -19 -14 -47 -33 -47 -14 0 -14 6 3 33 21 33 30 105 16 123 -11 13 -15 13 -30 -1 -13 -11 -16 -26 -13 -54 3 -24 0 -42 -8 -46 -8 -6 -10 -4 -5 4 5 7 0 18 -10 26 -26 19 -32 18 -39 -6 -10 -32 -19 -14 -19 41 -1 51 8 65 19 30 3 -11 12 -20 18 -20 7 0 20 9 30 20 9 11 14 20 11 20 -4 0 -1 6 5 14 21 25 -26 100 -56 89 -13 -5 -13 -2 -4 15 12 22 31 30 31 13 0 -5 13 -23 29 -40 37 -39 86 -42 124 -7 21 19 27 21 31 9 6 -16 -11 -37 -31 -39 -7 -1 -23 -2 -34 -2 -18 -2 -19 -5 -9 -16 13 -16 48 -6 83 22 21 18 21 21 -2 51 l-18 23 -26 -26 c-33 -33 -71 -33 -103 -1 -21 21 -24 31 -19 58 l7 32 -23 -22 -22 -22 -23 50 c-13 27 -26 49 -29 49 -3 0 -4 -4 0 -9 3 -5 0 -13 -6 -17 -7 -4 -9 -3 -6 3 4 6 0 16 -8 23 -12 10 -15 10 -15 0 0 -10 -5 -9 -17 2 -10 9 -27 18 -38 20 -11 2 -19 10 -17 16 1 7 -8 12 -20 13 -13 0 -17 3 -10 6 15 6 82 -27 82 -39 0 -5 5 -8 11 -8 5 0 7 5 4 10 -7 11 8 14 19 3 9 -10 36 -13 36 -4 0 12 -49 55 -56 49 -3 -4 4 -11 15 -18 12 -6 21 -15 21 -21 0 -6 -10 -3 -21 5 -12 8 -28 12 -37 9 -10 -4 -13 -2 -8 5 4 7 -3 14 -19 18 -13 3 -23 10 -20 14 3 5 -4 6 -14 3 -24 -6 -75 41 -67 62 3 8 0 17 -6 21 -8 5 -9 -4 -5 -30z m50 -206 c-3 -11 -10 -23 -16 -27 -5 -3 -8 -2 -5 3 3 5 8 17 11 27 9 24 16 22 10 -3z m177 -94 c0 -3 -4 -8 -10 -11 -5 -3 -10 -1 -10 4 0 6 5 11 10 11 6 0 10 -2 10 -4z m57 -61 c-1 -11 -9 -19 -16 -17 -8 2 -11 -3 -8 -12 4 -9 2 -18 -2 -21 -12 -7 -23 24 -14 37 3 6 1 8 -5 4 -20 -12 -23 14 -5 44 l18 30 17 -22 c10 -13 17 -32 15 -43z m-85 -89 c-2 -24 2 -44 11 -54 17 -19 27 -190 11 -194 -5 -2 -7 34 -5 80 2 68 0 87 -14 103 -13 14 -16 29 -12 61 3 26 2 37 -3 28 -5 -8 -12 -11 -15 -8 -10 10 5 30 18 25 7 -2 11 -19 9 -41z m130 -2 c-2 -21 -10 -46 -19 -55 -10 -13 -14 -39 -12 -103 1 -47 -2 -86 -7 -86 -15 0 -4 173 13 192 12 13 14 28 9 59 -5 31 -3 40 6 36 9 -2 12 -18 10 -43z m-152 -23 c0 -14 7 -35 15 -45 8 -11 15 -29 15 -40 0 -18 -5 -16 -35 16 -26 27 -35 46 -35 71 0 18 3 37 7 40 11 12 33 -15 33 -42z m60 -251 c0 -5 -4 -10 -10 -10 -5 0 -10 5 -10 10 0 6 5 10 10 10 6 0 10 -4 10 -10z"/> <path d="M1501 1614 c0 -11 3 -14 6 -6 3 7 2 16 -1 19 -3 4 -6 -2 -5 -13z"/> <path d="M1130 1956 c0 -2 7 -9 15 -16 13 -11 14 -10 9 4 -5 14 -24 23 -24 12z"/> <path d="M681 1929 c8 -5 28 -9 46 -9 18 0 64 -16 103 -36 40 -20 74 -33 78 -30 3 3 -1 6 -9 6 -12 0 -11 2 1 11 13 9 12 10 -3 5 -10 -3 -43 7 -75 23 -51 25 -176 52 -141 30z"/> <path d="M1365 1910 c4 -6 20 -8 40 -4 29 5 34 3 49 -26 8 -18 13 -36 10 -41 -3 -5 2 -19 12 -31 16 -23 16 -22 11 14 -3 21 -12 50 -19 65 -11 24 -20 28 -62 31 -33 2 -46 0 -41 -8z"/> <path d="M2491 1904 c0 -11 3 -14 6 -6 3 7 2 16 -1 19 -3 4 -6 -2 -5 -13z"/> <path d="M1356 1778 c-21 -29 -20 -51 2 -71 25 -23 65 -21 87 3 18 20 18 21 -15 55 -40 41 -53 43 -74 13z m70 -19 c3 -6 -1 -18 -9 -27 -13 -12 -19 -13 -31 -3 -8 7 -12 19 -9 27 6 17 39 19 49 3z m-46 -44 c11 -13 10 -14 -4 -9 -9 3 -16 10 -16 15 0 13 6 11 20 -6z"/> <path d="M1572 1783 c-7 -3 -18 -17 -23 -30 -20 -54 62 -89 95 -41 15 21 14 24 -11 50 -27 28 -36 31 -61 21z m35 -50 c-16 -16 -18 -16 -34 0 -17 17 -17 19 2 33 17 12 21 12 34 -1 14 -13 13 -17 -2 -32z"/> <path d="M1969 1639 l-24 -20 24 11 c13 7 38 9 59 5 32 -6 34 -5 23 9 -18 22 -54 20 -82 -5z"/> <path d="M1240 1600 c-20 -43 -22 -59 -18 -133 5 -67 12 -98 38 -151 32 -69 127 -176 155 -176 22 0 19 47 -5 77 -15 19 -20 41 -20 82 0 50 -4 61 -29 85 -16 15 -31 24 -34 19 -8 -13 9 -37 20 -30 12 8 14 -2 17 -98 2 -58 2 -61 -1 -10 -4 62 -7 74 -35 102 -17 18 -34 31 -37 29 -3 -2 -5 49 -3 113 2 91 0 120 -11 129 -11 10 -18 2 -37 -38z m39 -48 c-1 -26 -4 -38 -6 -27 -3 11 -10 25 -15 32 -12 14 -1 56 13 48 5 -4 8 -27 8 -53z m-19 -23 c0 -5 -7 -9 -15 -9 -15 0 -20 12 -9 23 8 8 24 -1 24 -14z m12 -91 c-3 -50 -1 -55 32 -87 32 -31 36 -41 36 -85 0 -62 -13 -52 -20 16 -3 34 -10 53 -20 56 -12 4 -13 2 -2 -9 6 -7 12 -22 12 -33 0 -18 -3 -17 -20 9 -14 22 -16 31 -7 37 9 5 7 11 -5 20 -11 9 -17 29 -18 63 -2 62 -2 65 8 65 5 0 7 -24 4 -52z m138 -272 c0 -6 -7 -2 -15 8 -8 11 -15 25 -15 30 0 6 7 2 15 -8 8 -11 15 -25 15 -30z"/> <path d="M1704 1618 c-10 -12 -13 -18 -6 -14 11 7 12 -12 7 -100 -7 -101 -9 -111 -36 -139 -25 -26 -28 -39 -32 -105 l-3 -75 -2 81 c-2 74 0 82 23 104 13 12 22 27 18 33 -3 6 -1 7 5 3 9 -5 12 19 12 91 0 67 -3 93 -10 83 -5 -8 -10 -46 -10 -85 0 -64 -2 -71 -32 -102 -29 -30 -31 -38 -29 -88 2 -42 -2 -62 -17 -83 -11 -15 -22 -38 -25 -52 l-4 -25 -2 25 c0 14 5 35 13 46 19 26 27 187 9 172 -8 -7 -13 -36 -13 -78 0 -48 -4 -71 -15 -80 -9 -7 -15 -29 -15 -51 0 -35 3 -39 25 -39 17 0 25 6 25 18 1 9 8 28 16 42 10 17 13 18 9 5 -19 -55 -19 -58 3 -46 21 11 75 74 104 121 51 84 67 228 35 313 -10 26 -22 47 -26 47 -4 0 -16 -10 -27 -22z m40 -55 c3 -10 9 -24 12 -30 3 -8 -1 -13 -11 -13 -11 0 -15 5 -12 15 4 8 2 17 -3 20 -12 8 -13 25 -1 25 5 0 11 -8 15 -17z m7 -72 c-8 -5 -16 -32 -19 -62 -3 -41 -11 -61 -33 -84 -21 -23 -29 -42 -32 -80 l-3 -50 -2 57 c-2 53 0 58 29 78 28 21 30 26 28 77 -3 53 7 73 36 73 6 0 4 -4 -4 -9z m3 -76 c-4 -8 -8 -15 -10 -15 -2 0 -4 7 -4 15 0 8 4 15 10 15 5 0 7 -7 4 -15z m-36 -92 c-7 -16 -18 -37 -25 -48 -13 -19 -13 -19 -13 5 0 13 10 34 22 47 28 30 30 29 16 -4z"/> <path d="M912 1584 c-19 -20 1 -25 71 -18 43 4 67 3 71 -5 4 -6 12 -11 18 -11 6 0 3 9 -7 20 -20 22 -99 28 -111 8 -5 -8 -10 -7 -18 4 -9 13 -13 13 -24 2z"/> <path d="M728 1583 c6 -2 18 -2 25 0 6 3 1 5 -13 5 -14 0 -19 -2 -12 -5z"/> <path d="M2248 1583 c7 -3 16 -2 19 1 4 3 -2 6 -13 5 -11 0 -14 -3 -6 -6z"/> <path d="M905 1010 c0 -96 -3 -123 -15 -130 -8 -5 -11 -13 -6 -17 4 -4 19 5 32 20 22 26 24 36 24 138 0 97 -2 109 -17 109 -16 0 -18 -12 -18 -120z"/> <path d="M1229 1053 c-16 -38 -38 -85 -48 -106 -19 -38 -19 -38 2 -35 15 2 30 25 58 88 35 78 38 83 47 60 32 -81 64 -141 77 -147 26 -9 26 1 1 53 -13 27 -34 73 -46 102 -32 74 -52 71 -91 -15z"/> <path d="M2017 1019 c-26 -56 -45 -104 -43 -107 10 -9 37 8 45 30 5 13 21 50 36 83 l27 59 37 -84 c23 -51 44 -86 54 -88 9 -2 17 -2 17 0 0 2 -20 48 -44 103 -59 136 -68 136 -129 4z"/> <path d="M980 1026 c0 -69 2 -76 28 -96 21 -17 36 -21 71 -17 63 7 80 33 81 120 0 38 -4 67 -10 67 -6 0 -10 -28 -10 -65 0 -57 -3 -69 -25 -90 -13 -14 -33 -25 -45 -25 -11 0 -32 11 -45 25 -22 21 -25 33 -25 90 0 37 -4 65 -10 65 -6 0 -10 -31 -10 -74z"/> <path d="M1407 1093 c-8 -13 -3 -173 6 -173 4 0 10 -1 14 -2 3 -2 5 32 4 76 l-2 78 32 -38 c63 -75 112 -123 121 -118 4 3 8 45 8 95 0 74 -3 89 -16 89 -13 0 -15 -12 -12 -75 2 -41 1 -75 -2 -74 -3 0 -32 34 -64 75 -55 68 -78 86 -89 67z"/> <path d="M1639 1071 c-90 -91 47 -218 143 -132 27 24 33 36 33 71 0 57 -37 90 -101 90 -37 0 -51 -6 -75 -29z m119 3 c51 -35 46 -111 -9 -140 -56 -29 -109 8 -109 75 0 67 65 102 118 65z"/> <path d="M1829 1068 c11 -18 29 -58 41 -88 37 -96 47 -93 103 38 25 58 32 82 22 82 -8 0 -17 -9 -20 -21 -4 -11 -18 -46 -33 -77 l-25 -56 -37 75 c-20 42 -44 75 -53 77 -16 3 -15 0 2 -30z"/> <path d="M1228 859 c-22 -12 -23 -52 -4 -69 17 -13 63 -10 56 5 -3 5 -15 8 -28 6 -20 -2 -23 1 -20 21 2 18 9 23 31 21 29 -2 37 11 11 21 -21 8 -26 7 -46 -5z"/> <path d="M1328 859 c-22 -12 -23 -52 -3 -69 8 -7 25 -10 39 -6 33 8 43 42 20 67 -19 21 -31 23 -56 8z m47 -34 c0 -22 -31 -33 -48 -16 -7 7 -6 15 3 26 17 21 45 15 45 -10z"/> <path d="M1420 825 c0 -25 5 -45 10 -45 6 0 10 7 10 15 0 8 4 15 9 15 5 0 11 -7 15 -15 3 -8 13 -15 22 -15 13 0 14 3 4 15 -9 11 -10 18 -1 29 16 19 -11 46 -45 46 -22 0 -24 -4 -24 -45z m53 10 c1 -5 -6 -11 -15 -13 -11 -2 -18 3 -18 13 0 17 30 18 33 0z"/> <path d="M1510 860 c0 -5 7 -10 15 -10 10 0 15 -11 15 -35 0 -19 5 -35 10 -35 6 0 10 16 10 35 0 25 4 35 16 35 8 0 12 5 9 10 -3 6 -22 10 -41 10 -19 0 -34 -4 -34 -10z"/> <path d="M1608 825 c-3 -45 -3 -45 29 -45 18 0 33 5 33 10 0 6 -11 10 -25 10 -14 0 -25 5 -25 11 0 6 9 9 20 6 11 -3 23 -1 26 4 3 5 -6 9 -20 9 -14 0 -26 5 -26 10 0 6 11 10 25 10 14 0 25 5 25 10 0 6 -13 10 -29 10 -27 0 -29 -3 -33 -45z"/> <path d="M1702 848 c14 -20 14 -25 1 -45 -9 -14 -11 -23 -5 -23 6 0 15 8 21 18 9 16 10 16 16 0 4 -10 14 -18 23 -18 13 0 12 3 -3 20 -17 18 -17 21 -1 45 18 27 7 35 -15 9 -11 -14 -13 -14 -21 0 -5 9 -14 16 -20 16 -6 0 -4 -9 4 -22z"/> <path d="M1448 710 c2 -22 8 -40 13 -40 5 0 9 18 9 40 0 26 -5 40 -13 40 -9 0 -11 -12 -9 -40z"/> <path d="M1518 734 c-3 -2 -3 -17 0 -34 3 -20 10 -30 21 -29 10 0 11 2 4 6 -16 6 -17 40 -1 45 8 3 6 6 -4 10 -9 4 -18 5 -20 2z"/> <path d="M1627 734 c-9 -9 9 -58 21 -60 7 -1 8 0 2 3 -14 7 -13 40 2 45 8 3 6 6 -4 10 -9 4 -18 4 -21 2z"/> <path d="M1005 700 c19 -36 19 -38 -2 -43 -17 -4 -17 -5 -1 -6 10 0 24 12 33 29 18 36 20 64 1 31 l-14 -24 -6 21 c-4 12 -12 22 -17 22 -5 0 -3 -13 6 -30z"/> <path d="M1064 715 c-9 -23 3 -45 25 -45 25 0 34 14 26 40 -7 23 -43 27 -51 5z m42 -6 c10 -17 -13 -36 -27 -22 -12 12 -4 33 11 33 5 0 12 -5 16 -11z"/> <path d="M1134 700 c1 -19 7 -26 26 -28 22 -2 25 1 25 28 0 16 -3 30 -7 30 -5 0 -8 -11 -8 -25 0 -32 -27 -34 -33 -2 -3 19 -4 19 -3 -3z"/> <path d="M1200 700 c0 -16 5 -30 11 -30 6 0 8 8 4 19 -4 13 0 23 12 30 16 9 16 10 -4 11 -19 0 -23 -5 -23 -30z"/> <path d="M1270 701 c0 -36 17 -42 22 -8 4 28 21 25 30 -5 6 -19 7 -18 5 7 -2 25 -7 31 -29 33 -25 3 -28 0 -28 -27z"/> <path d="M1351 717 c-13 -17 -6 -43 14 -51 18 -6 38 18 33 41 -4 23 -31 28 -47 10z m31 -29 c-15 -15 -26 -4 -18 18 5 13 9 15 18 6 9 -9 9 -15 0 -24z"/> <path d="M1564 700 c1 -18 7 -26 24 -28 19 -3 22 1 21 30 -2 30 -2 31 -6 6 -5 -34 -30 -37 -36 -5 -3 19 -4 19 -3 -3z"/> <path d="M1674 716 c-10 -26 4 -48 28 -44 17 2 23 10 23 28 0 18 -6 26 -23 28 -13 2 -25 -3 -28 -12z m42 -7 c10 -17 -13 -36 -27 -22 -12 12 -4 33 11 33 5 0 12 -5 16 -11z"/> <path d="M1740 700 c0 -16 5 -30 11 -30 6 0 8 8 4 19 -4 13 0 23 12 30 16 9 16 10 -4 11 -19 0 -23 -5 -23 -30z"/> <path d="M1810 722 c0 -6 9 -8 20 -5 15 4 20 0 20 -16 0 -13 -6 -21 -17 -21 -15 0 -16 2 -3 10 8 5 12 11 9 14 -2 3 -11 1 -18 -3 -18 -11 -5 -31 20 -31 31 0 22 54 -8 58 -13 2 -23 -1 -23 -6z"/> <path d="M1880 688 c0 -24 4 -38 8 -32 4 7 16 13 27 15 14 3 20 12 20 29 0 20 -6 26 -27 28 -27 3 -28 1 -28 -40z m46 21 c10 -17 -13 -36 -27 -22 -12 12 -4 33 11 33 5 0 12 -5 16 -11z"/> <path d="M1950 691 c0 -23 5 -41 11 -41 5 0 8 4 4 9 -3 5 5 11 17 13 17 2 23 10 23 28 0 20 -6 26 -27 28 -27 3 -28 1 -28 -37z m48 6 c2 -10 -3 -17 -12 -17 -18 0 -29 16 -21 31 9 14 29 6 33 -14z"/> <path d="M880 700 c0 -5 18 -10 39 -10 22 0 43 5 46 10 4 6 -12 10 -39 10 -25 0 -46 -4 -46 -10z"/> <path d="M2050 700 c0 -5 20 -10 45 -10 25 0 45 5 45 10 0 6 -20 10 -45 10 -25 0 -45 -4 -45 -10z"/> </g> </svg> 