<?xml version="1.0" standalone="no"?>
<!DOCTYPE svg PUBLIC "-//W3C//DTD SVG 20010904//EN"
 "http://www.w3.org/TR/2001/REC-SVG-20010904/DTD/svg10.dtd">
<svg version="1.0" xmlns="http://www.w3.org/2000/svg"
 width="450.000000pt" height="450.000000pt" viewBox="0 0 450.000000 450.000000"
 preserveAspectRatio="xMidYMid meet">
<metadata>
Created by potrace 1.10, written by Peter Selinger 2001-2011
</metadata>
<g transform="translate(0.000000,450.000000) scale(0.100000,-0.100000)"
fill="#646075" stroke="none">
<path d="M197 3362 c-10 -10 -17 -30 -17 -43 0 -45 20 -58 104 -69 44 -5 83
-15 86 -20 4 -6 26 -93 50 -193 173 -735 177 -750 210 -779 l30 -28 559 0
c528 0 559 1 574 18 22 24 21 65 -1 85 -17 15 -69 17 -549 17 l-531 0 -11 44
c-6 25 -11 47 -11 50 0 3 227 6 505 6 536 0 547 1 588 47 23 26 207 537 209
580 1 19 -6 40 -17 53 -18 20 -25 20 -736 20 l-718 0 -10 38 c-6 20 -15 58
-22 84 -16 66 -36 80 -137 94 -119 17 -136 17 -155 -4z m199 -28 c48 -7 55
-18 78 -112 9 -35 22 -70 30 -77 11 -12 133 -15 726 -17 677 -3 712 -4 725
-21 11 -16 11 -26 0 -62 -7 -24 -10 -46 -7 -49 3 -4 -1 -6 -8 -6 -7 0 -11 -3
-7 -6 3 -4 -1 -23 -9 -43 -9 -20 -32 -90 -51 -156 -19 -66 -38 -124 -42 -130
-4 -5 -16 -36 -25 -67 -13 -41 -27 -64 -51 -82 l-33 -25 -513 -1 c-587 0 -551
5 -531 -82 7 -29 13 -57 14 -63 1 -7 187 -10 536 -10 498 0 536 -1 546 -18 8
-12 8 -22 0 -35 -10 -16 -46 -17 -485 -20 -261 -1 -481 -3 -489 -4 -18 -1
-119 11 -140 17 -25 8 -47 52 -55 110 -1 11 -6 28 -10 39 -4 10 -8 31 -9 47
-1 16 -5 29 -10 29 -5 0 -7 2 -4 5 3 3 -3 38 -13 78 -17 62 -22 85 -33 142 -1
6 -5 15 -8 21 -4 6 -12 35 -17 65 -6 30 -20 92 -31 139 -12 47 -27 112 -35
145 -7 33 -14 60 -14 60 -1 0 -12 40 -18 69 -8 37 -12 41 -58 53 -28 7 -64 13
-82 13 -29 0 -63 21 -63 39 0 31 60 35 196 15z"/>
<path d="M3590 2690 l0 -200 40 0 40 0 0 94 c0 63 4 97 13 103 24 19 45 22 64
8 15 -11 18 -28 18 -109 l0 -96 39 0 38 0 -4 108 c-2 70 -9 115 -18 129 -29
45 -98 54 -134 18 -8 -8 -16 -15 -19 -15 -2 0 -2 36 1 80 l5 80 -42 0 -41 0 0
-200z m47 104 c-3 -29 0 -50 10 -64 13 -19 13 -25 -2 -56 -9 -19 -13 -39 -9
-46 4 -7 3 -8 -4 -4 -7 4 -11 47 -11 117 0 76 3 108 11 103 6 -4 8 -24 5 -50z
m153 -74 c18 -18 21 -32 19 -110 -2 -105 -16 -112 -18 -9 -1 80 -10 102 -49
123 l-27 15 28 1 c15 0 36 -9 47 -20z m-152 -155 c-4 -59 -19 -59 -16 0 0 25
5 45 10 45 4 0 7 -20 6 -45z"/>
<path d="M2755 2675 l0 -185 133 0 133 0 -3 33 -3 32 -93 0 -92 0 0 48 0 47
80 0 80 0 0 30 0 30 -80 0 -80 0 0 45 0 45 90 0 90 0 0 30 0 30 -127 0 -128 0
0 -185z m103 152 c-39 -11 -58 -39 -58 -85 0 -28 12 -54 24 -53 22 3 36 0 36
-9 0 -5 -6 -7 -14 -4 -18 7 -46 -43 -46 -81 0 -56 14 -65 97 -65 42 0 74 -2
71 -5 -8 -8 -166 -10 -174 -2 -6 6 -15 297 -9 307 2 3 27 5 57 6 52 1 53 1 16
-9z m106 1 c-3 -4 -16 -8 -30 -8 -14 0 -22 4 -19 10 3 5 17 9 30 8 13 -1 21
-6 19 -10z m-69 -148 c3 -5 -1 -10 -10 -10 -9 0 -13 5 -10 10 3 6 8 10 10 10
2 0 7 -4 10 -10z m60 0 c-3 -5 -11 -10 -16 -10 -6 0 -7 5 -4 10 3 6 11 10 16
10 6 0 7 -4 4 -10z"/>
<path d="M3123 2755 c-92 -40 -99 -203 -11 -251 31 -18 111 -17 153 0 38 16
41 22 21 48 -11 15 -16 16 -55 2 -49 -17 -83 -6 -109 34 l-15 23 99 -2 99 -1
-2 36 c-3 49 -30 92 -69 111 -39 18 -69 19 -111 0z m137 -63 c0 -13 -3 -12
-15 4 -19 25 -19 40 0 24 8 -7 15 -20 15 -28z m-34 -7 c9 -14 14 -28 12 -31
-3 -3 -34 -4 -68 -2 l-62 3 22 28 c29 36 73 37 96 2z m-125 -60 c-3 -5 -6 -13
-7 -17 -1 -5 -2 -11 -3 -15 -1 -5 -6 -1 -11 8 -5 9 -6 33 -3 54 l6 37 12 -28
c7 -16 10 -33 6 -39z m174 36 c3 -5 1 -12 -5 -16 -5 -3 -10 1 -10 9 0 18 6 21
15 7z m-167 -101 c7 -12 23 -25 35 -30 21 -9 22 -9 1 -9 -19 -1 -41 16 -58 47
-12 21 8 13 22 -8z"/>
<path d="M3393 2756 c-35 -16 -53 -43 -53 -80 0 -34 32 -62 88 -76 51 -13 67
-27 50 -47 -14 -18 -53 -16 -89 3 -29 14 -32 14 -45 -3 -19 -26 -18 -31 16
-48 46 -24 133 -20 164 8 60 53 34 114 -60 142 -42 12 -54 20 -52 33 4 18 52
22 94 8 15 -6 23 -2 31 17 10 22 9 26 -13 36 -42 19 -97 22 -131 7z m84 -22
c-3 -3 -12 -4 -19 -1 -8 3 -5 6 6 6 11 1 17 -2 13 -5z m-85 -40 c-4 -20 2 -32
24 -51 22 -18 24 -22 7 -13 -13 6 -23 8 -23 4 0 -4 -9 3 -20 16 -23 27 -23 26
-10 51 15 27 28 23 22 -7z m130 -96 c10 -16 10 -38 1 -37 -5 0 -18 13 -31 29
l-23 29 22 -4 c13 -3 26 -10 31 -17z m-2 -58 c0 -5 -7 -10 -16 -10 -8 0 -12 5
-9 10 3 6 10 10 16 10 5 0 9 -4 9 -10z"/>
<path d="M3937 2755 c-49 -17 -50 -18 -36 -48 11 -25 12 -25 45 -9 42 20 87 8
92 -24 3 -20 -3 -22 -59 -26 -52 -4 -66 -9 -86 -32 -29 -34 -29 -68 0 -102 31
-36 96 -38 132 -4 l25 23 0 -21 c0 -18 6 -22 30 -22 l30 0 0 100 c0 117 -13
152 -61 169 -41 14 -65 13 -112 -4z m133 -45 c6 -11 8 -20 4 -20 -3 0 -2 -6 3
-12 7 -10 11 -136 4 -157 0 -2 -7 2 -15 8 -11 9 -12 20 -5 43 5 20 5 36 -2 44
-7 9 -7 19 1 35 10 18 8 26 -9 50 -17 23 -18 29 -7 29 9 0 20 -9 26 -20z
m-149 -128 c-8 -15 -6 -24 10 -41 26 -28 16 -41 -11 -16 -23 21 -25 37 -8 65
16 24 23 18 9 -8z m119 9 c0 -45 -69 -70 -89 -33 -16 30 7 50 62 51 20 1 27
-4 27 -18z"/>
<path d="M1900 2750 c0 -6 34 -10 83 -10 45 0 216 -1 380 -1 l297 0 1 -77 c0
-42 2 -88 4 -102 1 -14 -1 -30 -6 -35 -5 -7 -145 -10 -424 -9 -338 1 -417 -1
-426 -12 -10 -12 61 -14 435 -14 l446 0 0 135 0 135 -395 0 c-257 0 -395 -4
-395 -10z"/>
<path d="M713 2200 c-77 -46 -90 -156 -25 -220 93 -93 242 -34 242 97 0 86
-55 143 -140 143 -27 0 -58 -8 -77 -20z m139 -21 c63 -45 70 -132 16 -187 -25
-26 -35 -30 -78 -28 -55 2 -89 26 -110 77 -15 35 4 119 26 119 8 0 14 4 14 8
0 13 41 31 73 31 16 1 42 -9 59 -20z"/>
<path d="M1531 2202 c-86 -46 -94 -183 -14 -240 75 -53 173 -29 214 54 62 128
-74 254 -200 186z m115 -12 c32 -13 64 -46 65 -69 0 -9 3 -27 5 -41 10 -55
-49 -120 -110 -120 -65 0 -120 60 -118 129 2 44 26 79 65 96 39 17 58 18 93 5z"/>
</g>
</svg>
